<mxfile host="app.diagrams.net" agent="Mozilla/5.0 (Windows NT 10.0; Win64; x64) AppleWebKit/537.36 (KHTML, like Gecko) Chrome/139.0.0.0 Safari/537.36" version="28.2.0">
  <diagram name="Sida-1" id="f8w5I-yGZrrWHKU5yhE_">
    <mxGraphModel dx="2053" dy="1896" grid="1" gridSize="12" guides="1" tooltips="1" connect="1" arrows="1" fold="1" page="1" pageScale="1" pageWidth="827" pageHeight="1169" math="0" shadow="0">
      <root>
        <mxCell id="0" />
        <mxCell id="1" parent="0" />
        <mxCell id="-gFtQ6SPpKlM3vbzV3f1-5" style="edgeStyle=orthogonalEdgeStyle;rounded=0;orthogonalLoop=1;jettySize=auto;html=1;exitX=0.5;exitY=0;exitDx=0;exitDy=0;entryX=0.5;entryY=0;entryDx=0;entryDy=0;endArrow=none;endFill=0;" edge="1" parent="1" source="-gFtQ6SPpKlM3vbzV3f1-2" target="-gFtQ6SPpKlM3vbzV3f1-2">
          <mxGeometry relative="1" as="geometry" />
        </mxCell>
        <mxCell id="-gFtQ6SPpKlM3vbzV3f1-76" style="edgeStyle=orthogonalEdgeStyle;rounded=0;orthogonalLoop=1;jettySize=auto;html=1;exitX=0;exitY=0.25;exitDx=0;exitDy=0;entryX=0.5;entryY=1;entryDx=0;entryDy=0;endArrow=none;endFill=0;" edge="1" parent="1" source="-gFtQ6SPpKlM3vbzV3f1-2" target="-gFtQ6SPpKlM3vbzV3f1-7">
          <mxGeometry relative="1" as="geometry" />
        </mxCell>
        <mxCell id="-gFtQ6SPpKlM3vbzV3f1-77" style="edgeStyle=orthogonalEdgeStyle;rounded=0;orthogonalLoop=1;jettySize=auto;html=1;exitX=0.25;exitY=0;exitDx=0;exitDy=0;entryX=1;entryY=0.5;entryDx=0;entryDy=0;endArrow=none;endFill=0;" edge="1" parent="1" source="-gFtQ6SPpKlM3vbzV3f1-2" target="-gFtQ6SPpKlM3vbzV3f1-15">
          <mxGeometry relative="1" as="geometry" />
        </mxCell>
        <mxCell id="-gFtQ6SPpKlM3vbzV3f1-393" style="edgeStyle=orthogonalEdgeStyle;rounded=0;orthogonalLoop=1;jettySize=auto;html=1;exitX=0;exitY=0.75;exitDx=0;exitDy=0;entryX=1;entryY=0.5;entryDx=0;entryDy=0;endArrow=none;endFill=0;" edge="1" parent="1" source="-gFtQ6SPpKlM3vbzV3f1-2" target="-gFtQ6SPpKlM3vbzV3f1-392">
          <mxGeometry relative="1" as="geometry" />
        </mxCell>
        <mxCell id="-gFtQ6SPpKlM3vbzV3f1-398" style="edgeStyle=orthogonalEdgeStyle;rounded=0;orthogonalLoop=1;jettySize=auto;html=1;exitX=0.5;exitY=0;exitDx=0;exitDy=0;entryX=1;entryY=0.5;entryDx=0;entryDy=0;endArrow=none;endFill=0;" edge="1" parent="1" source="-gFtQ6SPpKlM3vbzV3f1-2" target="-gFtQ6SPpKlM3vbzV3f1-14">
          <mxGeometry relative="1" as="geometry" />
        </mxCell>
        <mxCell id="-gFtQ6SPpKlM3vbzV3f1-436" style="edgeStyle=orthogonalEdgeStyle;rounded=0;orthogonalLoop=1;jettySize=auto;html=1;exitX=1;exitY=0.5;exitDx=0;exitDy=0;entryX=0;entryY=0.5;entryDx=0;entryDy=0;endArrow=none;endFill=0;" edge="1" parent="1" source="-gFtQ6SPpKlM3vbzV3f1-2" target="-gFtQ6SPpKlM3vbzV3f1-72">
          <mxGeometry relative="1" as="geometry" />
        </mxCell>
        <mxCell id="-gFtQ6SPpKlM3vbzV3f1-448" value="&lt;font style=&quot;font-size: 20px;&quot;&gt;N&lt;/font&gt;" style="edgeLabel;html=1;align=center;verticalAlign=middle;resizable=0;points=[];" vertex="1" connectable="0" parent="-gFtQ6SPpKlM3vbzV3f1-436">
          <mxGeometry x="0.5285" y="1" relative="1" as="geometry">
            <mxPoint as="offset" />
          </mxGeometry>
        </mxCell>
        <mxCell id="-gFtQ6SPpKlM3vbzV3f1-438" style="edgeStyle=orthogonalEdgeStyle;rounded=0;orthogonalLoop=1;jettySize=auto;html=1;exitX=0.75;exitY=0;exitDx=0;exitDy=0;entryX=0.5;entryY=1;entryDx=0;entryDy=0;endArrow=none;endFill=0;" edge="1" parent="1" source="-gFtQ6SPpKlM3vbzV3f1-2" target="-gFtQ6SPpKlM3vbzV3f1-57">
          <mxGeometry relative="1" as="geometry" />
        </mxCell>
        <mxCell id="-gFtQ6SPpKlM3vbzV3f1-447" value="&lt;font&gt;1&lt;/font&gt;" style="edgeLabel;html=1;align=center;verticalAlign=middle;resizable=0;points=[];fontSize=20;" vertex="1" connectable="0" parent="-gFtQ6SPpKlM3vbzV3f1-438">
          <mxGeometry x="0.6552" relative="1" as="geometry">
            <mxPoint x="-1" y="-4" as="offset" />
          </mxGeometry>
        </mxCell>
        <mxCell id="-gFtQ6SPpKlM3vbzV3f1-2" value="&lt;font style=&quot;font-size: 22px;&quot;&gt;Store&lt;/font&gt;" style="whiteSpace=wrap;html=1;align=center;" vertex="1" parent="1">
          <mxGeometry x="215" y="187" width="96" height="48" as="geometry" />
        </mxCell>
        <mxCell id="-gFtQ6SPpKlM3vbzV3f1-7" value="&lt;font style=&quot;font-size: 15px;&quot;&gt;Tele#&lt;/font&gt;" style="ellipse;whiteSpace=wrap;html=1;align=center;" vertex="1" parent="1">
          <mxGeometry x="115" y="136" width="100" height="40" as="geometry" />
        </mxCell>
        <mxCell id="-gFtQ6SPpKlM3vbzV3f1-14" value="Name" style="ellipse;whiteSpace=wrap;html=1;align=center;" vertex="1" parent="1">
          <mxGeometry x="115" y="36" width="100" height="40" as="geometry" />
        </mxCell>
        <mxCell id="-gFtQ6SPpKlM3vbzV3f1-15" value="&lt;u&gt;StoreID&lt;/u&gt;" style="ellipse;whiteSpace=wrap;html=1;align=center;" vertex="1" parent="1">
          <mxGeometry x="115" y="88" width="100" height="40" as="geometry" />
        </mxCell>
        <mxCell id="-gFtQ6SPpKlM3vbzV3f1-18" value="&lt;font style=&quot;font-size: 16px;&quot;&gt;Street&lt;/font&gt;" style="ellipse;whiteSpace=wrap;html=1;align=center;" vertex="1" parent="1">
          <mxGeometry x="-180" y="268" width="100" height="40" as="geometry" />
        </mxCell>
        <mxCell id="-gFtQ6SPpKlM3vbzV3f1-19" value="&lt;font style=&quot;font-size: 16px;&quot;&gt;City&lt;/font&gt;" style="ellipse;whiteSpace=wrap;html=1;align=center;" vertex="1" parent="1">
          <mxGeometry x="-180" y="147" width="100" height="40" as="geometry" />
        </mxCell>
        <mxCell id="-gFtQ6SPpKlM3vbzV3f1-28" value="&lt;font style=&quot;font-size: 16px;&quot;&gt;House#&lt;/font&gt;" style="ellipse;whiteSpace=wrap;html=1;align=center;" vertex="1" parent="1">
          <mxGeometry x="-32" y="128" width="100" height="40" as="geometry" />
        </mxCell>
        <mxCell id="-gFtQ6SPpKlM3vbzV3f1-31" value="&lt;font style=&quot;font-size: 16px;&quot;&gt;ZIP&lt;/font&gt;" style="ellipse;whiteSpace=wrap;html=1;align=center;" vertex="1" parent="1">
          <mxGeometry x="-32" y="276" width="100" height="40" as="geometry" />
        </mxCell>
        <mxCell id="-gFtQ6SPpKlM3vbzV3f1-51" style="edgeStyle=orthogonalEdgeStyle;rounded=0;orthogonalLoop=1;jettySize=auto;html=1;exitX=0.5;exitY=1;exitDx=0;exitDy=0;entryX=1;entryY=0.5;entryDx=0;entryDy=0;endArrow=none;endFill=0;" edge="1" parent="1" source="-gFtQ6SPpKlM3vbzV3f1-33" target="-gFtQ6SPpKlM3vbzV3f1-38">
          <mxGeometry relative="1" as="geometry" />
        </mxCell>
        <mxCell id="-gFtQ6SPpKlM3vbzV3f1-52" style="edgeStyle=orthogonalEdgeStyle;rounded=0;orthogonalLoop=1;jettySize=auto;html=1;exitX=0.25;exitY=1;exitDx=0;exitDy=0;entryX=1;entryY=0.5;entryDx=0;entryDy=0;endArrow=none;endFill=0;" edge="1" parent="1" source="-gFtQ6SPpKlM3vbzV3f1-33" target="-gFtQ6SPpKlM3vbzV3f1-46">
          <mxGeometry relative="1" as="geometry" />
        </mxCell>
        <mxCell id="-gFtQ6SPpKlM3vbzV3f1-55" style="edgeStyle=orthogonalEdgeStyle;rounded=0;orthogonalLoop=1;jettySize=auto;html=1;exitX=0.5;exitY=0;exitDx=0;exitDy=0;entryX=0.5;entryY=1;entryDx=0;entryDy=0;endArrow=none;endFill=0;shape=link;" edge="1" parent="1" source="-gFtQ6SPpKlM3vbzV3f1-33" target="-gFtQ6SPpKlM3vbzV3f1-35">
          <mxGeometry relative="1" as="geometry" />
        </mxCell>
        <mxCell id="-gFtQ6SPpKlM3vbzV3f1-81" value="1" style="edgeLabel;html=1;align=center;verticalAlign=middle;resizable=0;points=[];fontSize=20;" vertex="1" connectable="0" parent="-gFtQ6SPpKlM3vbzV3f1-55">
          <mxGeometry x="-0.1262" y="1" relative="1" as="geometry">
            <mxPoint y="-12" as="offset" />
          </mxGeometry>
        </mxCell>
        <mxCell id="-gFtQ6SPpKlM3vbzV3f1-386" style="edgeStyle=orthogonalEdgeStyle;rounded=0;orthogonalLoop=1;jettySize=auto;html=1;exitX=0.25;exitY=0;exitDx=0;exitDy=0;entryX=1;entryY=0.5;entryDx=0;entryDy=0;endArrow=none;endFill=0;" edge="1" parent="1" source="-gFtQ6SPpKlM3vbzV3f1-33" target="-gFtQ6SPpKlM3vbzV3f1-385">
          <mxGeometry relative="1" as="geometry" />
        </mxCell>
        <mxCell id="-gFtQ6SPpKlM3vbzV3f1-411" style="edgeStyle=orthogonalEdgeStyle;rounded=0;orthogonalLoop=1;jettySize=auto;html=1;exitX=0.75;exitY=1;exitDx=0;exitDy=0;entryX=1;entryY=0.5;entryDx=0;entryDy=0;endArrow=none;endFill=0;" edge="1" parent="1" source="-gFtQ6SPpKlM3vbzV3f1-33" target="-gFtQ6SPpKlM3vbzV3f1-381">
          <mxGeometry relative="1" as="geometry" />
        </mxCell>
        <mxCell id="-gFtQ6SPpKlM3vbzV3f1-33" value="&lt;font style=&quot;font-size: 16px;&quot;&gt;Employee&lt;/font&gt;" style="whiteSpace=wrap;html=1;align=center;" vertex="1" parent="1">
          <mxGeometry x="192" y="480" width="100" height="40" as="geometry" />
        </mxCell>
        <mxCell id="-gFtQ6SPpKlM3vbzV3f1-56" style="edgeStyle=orthogonalEdgeStyle;rounded=0;orthogonalLoop=1;jettySize=auto;html=1;exitX=0.5;exitY=0;exitDx=0;exitDy=0;entryX=0.25;entryY=1;entryDx=0;entryDy=0;endArrow=none;endFill=0;shape=link;" edge="1" parent="1" source="-gFtQ6SPpKlM3vbzV3f1-35" target="-gFtQ6SPpKlM3vbzV3f1-2">
          <mxGeometry relative="1" as="geometry" />
        </mxCell>
        <mxCell id="-gFtQ6SPpKlM3vbzV3f1-80" value="&lt;font style=&quot;font-size: 20px;&quot;&gt;N&lt;/font&gt;" style="edgeLabel;html=1;align=center;verticalAlign=middle;resizable=0;points=[];" vertex="1" connectable="0" parent="-gFtQ6SPpKlM3vbzV3f1-56">
          <mxGeometry x="0.1781" y="-1" relative="1" as="geometry">
            <mxPoint y="54" as="offset" />
          </mxGeometry>
        </mxCell>
        <mxCell id="-gFtQ6SPpKlM3vbzV3f1-35" value="&lt;font style=&quot;font-size: 16px;&quot;&gt;Work&lt;/font&gt;" style="shape=rhombus;perimeter=rhombusPerimeter;whiteSpace=wrap;html=1;align=center;" vertex="1" parent="1">
          <mxGeometry x="182" y="360" width="120" height="60" as="geometry" />
        </mxCell>
        <mxCell id="-gFtQ6SPpKlM3vbzV3f1-38" value="&lt;font style=&quot;font-size: 16px;&quot;&gt;&lt;u&gt;EmployeeID&lt;/u&gt;&lt;/font&gt;" style="ellipse;whiteSpace=wrap;html=1;align=center;" vertex="1" parent="1">
          <mxGeometry x="76" y="604" width="100" height="40" as="geometry" />
        </mxCell>
        <mxCell id="-gFtQ6SPpKlM3vbzV3f1-42" value="&lt;font style=&quot;font-size: 16px;&quot;&gt;First&lt;/font&gt;" style="ellipse;whiteSpace=wrap;html=1;align=center;" vertex="1" parent="1">
          <mxGeometry x="-40" y="400" width="100" height="40" as="geometry" />
        </mxCell>
        <mxCell id="-gFtQ6SPpKlM3vbzV3f1-44" value="&lt;font style=&quot;font-size: 16px;&quot;&gt;Last&lt;/font&gt;" style="ellipse;whiteSpace=wrap;html=1;align=center;" vertex="1" parent="1">
          <mxGeometry x="-40" y="480" width="100" height="40" as="geometry" />
        </mxCell>
        <mxCell id="-gFtQ6SPpKlM3vbzV3f1-46" value="&lt;font style=&quot;font-size: 16px;&quot;&gt;Salary&lt;/font&gt;" style="ellipse;whiteSpace=wrap;html=1;align=center;" vertex="1" parent="1">
          <mxGeometry x="76" y="540" width="100" height="40" as="geometry" />
        </mxCell>
        <mxCell id="-gFtQ6SPpKlM3vbzV3f1-439" style="edgeStyle=orthogonalEdgeStyle;rounded=0;orthogonalLoop=1;jettySize=auto;html=1;exitX=0.5;exitY=0;exitDx=0;exitDy=0;entryX=0.5;entryY=1;entryDx=0;entryDy=0;endArrow=none;endFill=0;" edge="1" parent="1" source="-gFtQ6SPpKlM3vbzV3f1-57" target="-gFtQ6SPpKlM3vbzV3f1-60">
          <mxGeometry relative="1" as="geometry" />
        </mxCell>
        <mxCell id="-gFtQ6SPpKlM3vbzV3f1-469" value="&lt;font style=&quot;font-size: 20px;&quot;&gt;N&lt;/font&gt;" style="edgeLabel;html=1;align=center;verticalAlign=middle;resizable=0;points=[];" vertex="1" connectable="0" parent="-gFtQ6SPpKlM3vbzV3f1-439">
          <mxGeometry x="0.0588" y="3" relative="1" as="geometry">
            <mxPoint x="2" y="2" as="offset" />
          </mxGeometry>
        </mxCell>
        <mxCell id="-gFtQ6SPpKlM3vbzV3f1-57" value="&lt;font style=&quot;font-size: 16px;&quot;&gt;Has&lt;/font&gt;" style="shape=rhombus;perimeter=rhombusPerimeter;whiteSpace=wrap;html=1;align=center;" vertex="1" parent="1">
          <mxGeometry x="228" y="-48" width="120" height="60" as="geometry" />
        </mxCell>
        <mxCell id="-gFtQ6SPpKlM3vbzV3f1-442" style="edgeStyle=orthogonalEdgeStyle;rounded=0;orthogonalLoop=1;jettySize=auto;html=1;exitX=0.25;exitY=0;exitDx=0;exitDy=0;entryX=1;entryY=0.5;entryDx=0;entryDy=0;endArrow=none;endFill=0;" edge="1" parent="1" source="-gFtQ6SPpKlM3vbzV3f1-60" target="-gFtQ6SPpKlM3vbzV3f1-320">
          <mxGeometry relative="1" as="geometry" />
        </mxCell>
        <mxCell id="-gFtQ6SPpKlM3vbzV3f1-443" style="edgeStyle=orthogonalEdgeStyle;rounded=0;orthogonalLoop=1;jettySize=auto;html=1;exitX=0.5;exitY=0;exitDx=0;exitDy=0;entryX=1;entryY=0.5;entryDx=0;entryDy=0;endArrow=none;endFill=0;" edge="1" parent="1" source="-gFtQ6SPpKlM3vbzV3f1-60" target="-gFtQ6SPpKlM3vbzV3f1-328">
          <mxGeometry relative="1" as="geometry" />
        </mxCell>
        <mxCell id="-gFtQ6SPpKlM3vbzV3f1-444" style="edgeStyle=orthogonalEdgeStyle;rounded=0;orthogonalLoop=1;jettySize=auto;html=1;exitX=0.75;exitY=0;exitDx=0;exitDy=0;entryX=1;entryY=0.5;entryDx=0;entryDy=0;endArrow=none;endFill=0;" edge="1" parent="1" source="-gFtQ6SPpKlM3vbzV3f1-60" target="-gFtQ6SPpKlM3vbzV3f1-325">
          <mxGeometry relative="1" as="geometry" />
        </mxCell>
        <mxCell id="-gFtQ6SPpKlM3vbzV3f1-445" style="edgeStyle=orthogonalEdgeStyle;rounded=0;orthogonalLoop=1;jettySize=auto;html=1;exitX=0;exitY=0.5;exitDx=0;exitDy=0;entryX=1;entryY=0.5;entryDx=0;entryDy=0;endArrow=none;endFill=0;" edge="1" parent="1" source="-gFtQ6SPpKlM3vbzV3f1-60" target="-gFtQ6SPpKlM3vbzV3f1-178">
          <mxGeometry relative="1" as="geometry" />
        </mxCell>
        <mxCell id="-gFtQ6SPpKlM3vbzV3f1-461" style="edgeStyle=orthogonalEdgeStyle;rounded=0;orthogonalLoop=1;jettySize=auto;html=1;exitX=1;exitY=0.25;exitDx=0;exitDy=0;entryX=0;entryY=0.5;entryDx=0;entryDy=0;endArrow=none;endFill=0;" edge="1" parent="1" source="-gFtQ6SPpKlM3vbzV3f1-60" target="-gFtQ6SPpKlM3vbzV3f1-460">
          <mxGeometry relative="1" as="geometry" />
        </mxCell>
        <mxCell id="-gFtQ6SPpKlM3vbzV3f1-502" value="&lt;font style=&quot;font-size: 20px;&quot;&gt;M&lt;/font&gt;" style="edgeLabel;html=1;align=center;verticalAlign=middle;resizable=0;points=[];" vertex="1" connectable="0" parent="-gFtQ6SPpKlM3vbzV3f1-461">
          <mxGeometry x="0.6437" y="-4" relative="1" as="geometry">
            <mxPoint y="-4" as="offset" />
          </mxGeometry>
        </mxCell>
        <mxCell id="-gFtQ6SPpKlM3vbzV3f1-488" style="edgeStyle=orthogonalEdgeStyle;rounded=0;orthogonalLoop=1;jettySize=auto;html=1;exitX=1;exitY=0.75;exitDx=0;exitDy=0;entryX=0;entryY=0.5;entryDx=0;entryDy=0;endArrow=none;endFill=0;" edge="1" parent="1" source="-gFtQ6SPpKlM3vbzV3f1-60" target="-gFtQ6SPpKlM3vbzV3f1-485">
          <mxGeometry relative="1" as="geometry" />
        </mxCell>
        <mxCell id="-gFtQ6SPpKlM3vbzV3f1-501" value="&lt;font style=&quot;font-size: 20px;&quot;&gt;M&lt;/font&gt;" style="edgeLabel;html=1;align=center;verticalAlign=middle;resizable=0;points=[];" vertex="1" connectable="0" parent="-gFtQ6SPpKlM3vbzV3f1-488">
          <mxGeometry x="0.7089" y="-2" relative="1" as="geometry">
            <mxPoint as="offset" />
          </mxGeometry>
        </mxCell>
        <mxCell id="-gFtQ6SPpKlM3vbzV3f1-60" value="&lt;font style=&quot;font-size: 16px;&quot;&gt;Member&lt;/font&gt;" style="whiteSpace=wrap;html=1;align=center;" vertex="1" parent="1">
          <mxGeometry x="238" y="-132" width="100" height="40" as="geometry" />
        </mxCell>
        <mxCell id="-gFtQ6SPpKlM3vbzV3f1-437" style="edgeStyle=orthogonalEdgeStyle;rounded=0;orthogonalLoop=1;jettySize=auto;html=1;exitX=1;exitY=0.5;exitDx=0;exitDy=0;entryX=0;entryY=0.5;entryDx=0;entryDy=0;endArrow=none;endFill=0;" edge="1" parent="1" source="-gFtQ6SPpKlM3vbzV3f1-72" target="-gFtQ6SPpKlM3vbzV3f1-73">
          <mxGeometry relative="1" as="geometry" />
        </mxCell>
        <mxCell id="-gFtQ6SPpKlM3vbzV3f1-449" value="&lt;font style=&quot;font-size: 21px;&quot;&gt;M&lt;/font&gt;" style="edgeLabel;html=1;align=center;verticalAlign=middle;resizable=0;points=[];" vertex="1" connectable="0" parent="-gFtQ6SPpKlM3vbzV3f1-437">
          <mxGeometry x="-0.6985" y="2" relative="1" as="geometry">
            <mxPoint as="offset" />
          </mxGeometry>
        </mxCell>
        <mxCell id="-gFtQ6SPpKlM3vbzV3f1-453" style="edgeStyle=orthogonalEdgeStyle;rounded=0;orthogonalLoop=1;jettySize=auto;html=1;exitX=0.5;exitY=1;exitDx=0;exitDy=0;entryX=1;entryY=0.5;entryDx=0;entryDy=0;endArrow=none;endFill=0;" edge="1" parent="1" source="-gFtQ6SPpKlM3vbzV3f1-72" target="-gFtQ6SPpKlM3vbzV3f1-452">
          <mxGeometry relative="1" as="geometry" />
        </mxCell>
        <mxCell id="-gFtQ6SPpKlM3vbzV3f1-456" style="edgeStyle=orthogonalEdgeStyle;rounded=0;orthogonalLoop=1;jettySize=auto;html=1;exitX=0;exitY=1;exitDx=0;exitDy=0;entryX=1;entryY=0.5;entryDx=0;entryDy=0;endArrow=none;endFill=0;" edge="1" parent="1" source="-gFtQ6SPpKlM3vbzV3f1-72" target="-gFtQ6SPpKlM3vbzV3f1-450">
          <mxGeometry relative="1" as="geometry" />
        </mxCell>
        <mxCell id="-gFtQ6SPpKlM3vbzV3f1-457" style="edgeStyle=orthogonalEdgeStyle;rounded=0;orthogonalLoop=1;jettySize=auto;html=1;exitX=1;exitY=1;exitDx=0;exitDy=0;entryX=1;entryY=0.5;entryDx=0;entryDy=0;endArrow=none;endFill=0;" edge="1" parent="1" source="-gFtQ6SPpKlM3vbzV3f1-72" target="-gFtQ6SPpKlM3vbzV3f1-454">
          <mxGeometry relative="1" as="geometry" />
        </mxCell>
        <mxCell id="-gFtQ6SPpKlM3vbzV3f1-478" style="edgeStyle=orthogonalEdgeStyle;rounded=0;orthogonalLoop=1;jettySize=auto;html=1;exitX=1;exitY=0;exitDx=0;exitDy=0;entryX=0.5;entryY=1;entryDx=0;entryDy=0;endArrow=none;endFill=0;" edge="1" parent="1" source="-gFtQ6SPpKlM3vbzV3f1-72" target="-gFtQ6SPpKlM3vbzV3f1-477">
          <mxGeometry relative="1" as="geometry" />
        </mxCell>
        <mxCell id="-gFtQ6SPpKlM3vbzV3f1-480" style="edgeStyle=orthogonalEdgeStyle;rounded=0;orthogonalLoop=1;jettySize=auto;html=1;exitX=0;exitY=0;exitDx=0;exitDy=0;entryX=1;entryY=0.5;entryDx=0;entryDy=0;endArrow=none;endFill=0;" edge="1" parent="1" source="-gFtQ6SPpKlM3vbzV3f1-72" target="-gFtQ6SPpKlM3vbzV3f1-479">
          <mxGeometry relative="1" as="geometry" />
        </mxCell>
        <mxCell id="-gFtQ6SPpKlM3vbzV3f1-72" value="&lt;span style=&quot;font-size: 16px;&quot;&gt;Offer&lt;/span&gt;" style="shape=rhombus;perimeter=rhombusPerimeter;whiteSpace=wrap;html=1;align=center;" vertex="1" parent="1">
          <mxGeometry x="468" y="181.5" width="115" height="61" as="geometry" />
        </mxCell>
        <mxCell id="-gFtQ6SPpKlM3vbzV3f1-218" style="edgeStyle=orthogonalEdgeStyle;rounded=0;orthogonalLoop=1;jettySize=auto;html=1;exitX=0.5;exitY=0;exitDx=0;exitDy=0;entryX=0;entryY=0.5;entryDx=0;entryDy=0;endArrow=none;endFill=0;" edge="1" parent="1" source="-gFtQ6SPpKlM3vbzV3f1-73" target="-gFtQ6SPpKlM3vbzV3f1-97">
          <mxGeometry relative="1" as="geometry" />
        </mxCell>
        <mxCell id="-gFtQ6SPpKlM3vbzV3f1-223" style="edgeStyle=orthogonalEdgeStyle;rounded=0;orthogonalLoop=1;jettySize=auto;html=1;exitX=0.75;exitY=0;exitDx=0;exitDy=0;entryX=0;entryY=0.5;entryDx=0;entryDy=0;endArrow=none;endFill=0;" edge="1" parent="1" source="-gFtQ6SPpKlM3vbzV3f1-73" target="-gFtQ6SPpKlM3vbzV3f1-95">
          <mxGeometry relative="1" as="geometry" />
        </mxCell>
        <mxCell id="-gFtQ6SPpKlM3vbzV3f1-224" style="edgeStyle=orthogonalEdgeStyle;rounded=0;orthogonalLoop=1;jettySize=auto;html=1;exitX=0.25;exitY=0;exitDx=0;exitDy=0;entryX=0;entryY=0.5;entryDx=0;entryDy=0;endArrow=none;endFill=0;" edge="1" parent="1" source="-gFtQ6SPpKlM3vbzV3f1-73" target="-gFtQ6SPpKlM3vbzV3f1-99">
          <mxGeometry relative="1" as="geometry" />
        </mxCell>
        <mxCell id="-gFtQ6SPpKlM3vbzV3f1-270" style="edgeStyle=orthogonalEdgeStyle;rounded=0;orthogonalLoop=1;jettySize=auto;html=1;exitX=0.75;exitY=1;exitDx=0;exitDy=0;entryX=0.5;entryY=0;entryDx=0;entryDy=0;endArrow=none;endFill=0;shape=link;" edge="1" parent="1" source="-gFtQ6SPpKlM3vbzV3f1-73" target="-gFtQ6SPpKlM3vbzV3f1-200">
          <mxGeometry relative="1" as="geometry" />
        </mxCell>
        <mxCell id="-gFtQ6SPpKlM3vbzV3f1-484" value="&lt;font style=&quot;font-size: 20px;&quot;&gt;M&lt;/font&gt;" style="edgeLabel;html=1;align=center;verticalAlign=middle;resizable=0;points=[];" vertex="1" connectable="0" parent="-gFtQ6SPpKlM3vbzV3f1-270">
          <mxGeometry x="0.8384" y="1" relative="1" as="geometry">
            <mxPoint as="offset" />
          </mxGeometry>
        </mxCell>
        <mxCell id="-gFtQ6SPpKlM3vbzV3f1-73" value="&lt;font style=&quot;font-size: 16px;&quot;&gt;Movie&lt;/font&gt;" style="whiteSpace=wrap;html=1;align=center;" vertex="1" parent="1">
          <mxGeometry x="696" y="191" width="100" height="40" as="geometry" />
        </mxCell>
        <mxCell id="-gFtQ6SPpKlM3vbzV3f1-95" value="&lt;font style=&quot;font-size: 16px;&quot;&gt;Length&lt;/font&gt;" style="ellipse;whiteSpace=wrap;html=1;align=center;" vertex="1" parent="1">
          <mxGeometry x="816" y="128" width="100" height="40" as="geometry" />
        </mxCell>
        <mxCell id="-gFtQ6SPpKlM3vbzV3f1-97" value="&lt;font style=&quot;font-size: 16px;&quot;&gt;Title&lt;/font&gt;" style="ellipse;whiteSpace=wrap;html=1;align=center;" vertex="1" parent="1">
          <mxGeometry x="816" y="76" width="100" height="40" as="geometry" />
        </mxCell>
        <mxCell id="-gFtQ6SPpKlM3vbzV3f1-99" value="&lt;font style=&quot;font-size: 16px;&quot;&gt;MovieID&lt;/font&gt;" style="ellipse;whiteSpace=wrap;html=1;align=center;" vertex="1" parent="1">
          <mxGeometry x="816" y="24" width="100" height="40" as="geometry" />
        </mxCell>
        <mxCell id="-gFtQ6SPpKlM3vbzV3f1-104" style="edgeStyle=orthogonalEdgeStyle;rounded=0;orthogonalLoop=1;jettySize=auto;html=1;exitX=0;exitY=0.5;exitDx=0;exitDy=0;entryX=1;entryY=0.5;entryDx=0;entryDy=0;endArrow=none;endFill=0;" edge="1" parent="1" source="-gFtQ6SPpKlM3vbzV3f1-103" target="-gFtQ6SPpKlM3vbzV3f1-73">
          <mxGeometry relative="1" as="geometry" />
        </mxCell>
        <mxCell id="-gFtQ6SPpKlM3vbzV3f1-109" value="N" style="edgeLabel;html=1;align=center;verticalAlign=middle;resizable=0;points=[];fontSize=20;" vertex="1" connectable="0" parent="-gFtQ6SPpKlM3vbzV3f1-104">
          <mxGeometry x="-0.2337" y="3" relative="1" as="geometry">
            <mxPoint x="-1" as="offset" />
          </mxGeometry>
        </mxCell>
        <mxCell id="-gFtQ6SPpKlM3vbzV3f1-487" style="edgeStyle=orthogonalEdgeStyle;rounded=0;orthogonalLoop=1;jettySize=auto;html=1;exitX=1;exitY=0;exitDx=0;exitDy=0;entryX=0;entryY=0.5;entryDx=0;entryDy=0;endArrow=none;endFill=0;" edge="1" parent="1" source="-gFtQ6SPpKlM3vbzV3f1-103" target="-gFtQ6SPpKlM3vbzV3f1-486">
          <mxGeometry relative="1" as="geometry" />
        </mxCell>
        <mxCell id="-gFtQ6SPpKlM3vbzV3f1-103" value="&lt;font style=&quot;font-size: 16px;&quot;&gt;Worked&lt;/font&gt;" style="shape=rhombus;perimeter=rhombusPerimeter;whiteSpace=wrap;html=1;align=center;" vertex="1" parent="1">
          <mxGeometry x="868" y="182.5" width="120" height="60" as="geometry" />
        </mxCell>
        <mxCell id="-gFtQ6SPpKlM3vbzV3f1-107" style="edgeStyle=orthogonalEdgeStyle;rounded=0;orthogonalLoop=1;jettySize=auto;html=1;exitX=0;exitY=0.5;exitDx=0;exitDy=0;entryX=1;entryY=0.5;entryDx=0;entryDy=0;endArrow=none;endFill=0;shape=link;" edge="1" parent="1" source="-gFtQ6SPpKlM3vbzV3f1-106" target="-gFtQ6SPpKlM3vbzV3f1-103">
          <mxGeometry relative="1" as="geometry" />
        </mxCell>
        <mxCell id="-gFtQ6SPpKlM3vbzV3f1-150" value="M" style="edgeLabel;html=1;align=center;verticalAlign=middle;resizable=0;points=[];fontSize=20;" vertex="1" connectable="0" parent="-gFtQ6SPpKlM3vbzV3f1-107">
          <mxGeometry x="-0.0156" y="2" relative="1" as="geometry">
            <mxPoint x="-1" as="offset" />
          </mxGeometry>
        </mxCell>
        <mxCell id="-gFtQ6SPpKlM3vbzV3f1-407" style="edgeStyle=orthogonalEdgeStyle;rounded=0;orthogonalLoop=1;jettySize=auto;html=1;exitX=1;exitY=0.5;exitDx=0;exitDy=0;entryX=0;entryY=0.5;entryDx=0;entryDy=0;endArrow=none;endFill=0;" edge="1" parent="1" source="-gFtQ6SPpKlM3vbzV3f1-106" target="-gFtQ6SPpKlM3vbzV3f1-404">
          <mxGeometry relative="1" as="geometry" />
        </mxCell>
        <mxCell id="-gFtQ6SPpKlM3vbzV3f1-420" style="edgeStyle=orthogonalEdgeStyle;rounded=0;orthogonalLoop=1;jettySize=auto;html=1;exitX=0.75;exitY=1;exitDx=0;exitDy=0;entryX=0;entryY=0.5;entryDx=0;entryDy=0;endArrow=none;endFill=0;" edge="1" parent="1" source="-gFtQ6SPpKlM3vbzV3f1-106" target="-gFtQ6SPpKlM3vbzV3f1-117">
          <mxGeometry relative="1" as="geometry" />
        </mxCell>
        <mxCell id="-gFtQ6SPpKlM3vbzV3f1-106" value="&lt;font style=&quot;font-size: 16px;&quot;&gt;Personell&lt;/font&gt;" style="whiteSpace=wrap;html=1;align=center;" vertex="1" parent="1">
          <mxGeometry x="1108" y="191" width="100" height="40" as="geometry" />
        </mxCell>
        <mxCell id="-gFtQ6SPpKlM3vbzV3f1-117" value="&lt;font style=&quot;font-size: 16px;&quot;&gt;&lt;u&gt;ActorID&lt;/u&gt;&lt;/font&gt;" style="ellipse;whiteSpace=wrap;html=1;align=center;" vertex="1" parent="1">
          <mxGeometry x="1208" y="276" width="100" height="40" as="geometry" />
        </mxCell>
        <mxCell id="-gFtQ6SPpKlM3vbzV3f1-178" value="&lt;font style=&quot;font-size: 20px;&quot;&gt;&lt;u&gt;MemberID&lt;/u&gt;&lt;/font&gt;" style="ellipse;whiteSpace=wrap;html=1;align=center;" vertex="1" parent="1">
          <mxGeometry x="66" y="-130" width="120" height="36" as="geometry" />
        </mxCell>
        <mxCell id="-gFtQ6SPpKlM3vbzV3f1-186" value="&lt;font style=&quot;font-size: 20px;&quot;&gt;&lt;u&gt;GenreID&lt;/u&gt;&lt;/font&gt;" style="ellipse;whiteSpace=wrap;html=1;align=center;" vertex="1" parent="1">
          <mxGeometry x="1152" y="424" width="100" height="40" as="geometry" />
        </mxCell>
        <mxCell id="-gFtQ6SPpKlM3vbzV3f1-193" style="edgeStyle=orthogonalEdgeStyle;rounded=0;orthogonalLoop=1;jettySize=auto;html=1;exitX=1;exitY=0.5;exitDx=0;exitDy=0;entryX=0;entryY=0.5;entryDx=0;entryDy=0;endArrow=none;endFill=0;" edge="1" parent="1" source="-gFtQ6SPpKlM3vbzV3f1-191" target="-gFtQ6SPpKlM3vbzV3f1-186">
          <mxGeometry relative="1" as="geometry" />
        </mxCell>
        <mxCell id="-gFtQ6SPpKlM3vbzV3f1-504" style="edgeStyle=orthogonalEdgeStyle;rounded=0;orthogonalLoop=1;jettySize=auto;html=1;exitX=0.5;exitY=1;exitDx=0;exitDy=0;entryX=0.5;entryY=0;entryDx=0;entryDy=0;" edge="1" parent="1" source="-gFtQ6SPpKlM3vbzV3f1-191" target="-gFtQ6SPpKlM3vbzV3f1-503">
          <mxGeometry relative="1" as="geometry" />
        </mxCell>
        <mxCell id="-gFtQ6SPpKlM3vbzV3f1-191" value="&lt;font style=&quot;font-size: 20px;&quot;&gt;Genre&lt;/font&gt;" style="whiteSpace=wrap;html=1;align=center;" vertex="1" parent="1">
          <mxGeometry x="1008" y="424" width="100" height="40" as="geometry" />
        </mxCell>
        <mxCell id="-gFtQ6SPpKlM3vbzV3f1-272" style="edgeStyle=orthogonalEdgeStyle;rounded=0;orthogonalLoop=1;jettySize=auto;html=1;exitX=0.5;exitY=1;exitDx=0;exitDy=0;entryX=0.5;entryY=0;entryDx=0;entryDy=0;endArrow=none;endFill=0;" edge="1" parent="1" source="-gFtQ6SPpKlM3vbzV3f1-200" target="-gFtQ6SPpKlM3vbzV3f1-191">
          <mxGeometry relative="1" as="geometry" />
        </mxCell>
        <mxCell id="-gFtQ6SPpKlM3vbzV3f1-357" value="&lt;font style=&quot;font-size: 20px;&quot;&gt;N&lt;/font&gt;" style="edgeLabel;html=1;align=center;verticalAlign=middle;resizable=0;points=[];" vertex="1" connectable="0" parent="-gFtQ6SPpKlM3vbzV3f1-272">
          <mxGeometry x="-0.026" y="3" relative="1" as="geometry">
            <mxPoint x="-3" y="-7" as="offset" />
          </mxGeometry>
        </mxCell>
        <mxCell id="-gFtQ6SPpKlM3vbzV3f1-200" value="&lt;font style=&quot;font-size: 20px;&quot;&gt;Has&lt;/font&gt;" style="shape=rhombus;perimeter=rhombusPerimeter;whiteSpace=wrap;html=1;align=center;" vertex="1" parent="1">
          <mxGeometry x="852" y="320" width="120" height="60" as="geometry" />
        </mxCell>
        <mxCell id="-gFtQ6SPpKlM3vbzV3f1-320" value="&lt;font style=&quot;font-size: 16px;&quot;&gt;Name&lt;/font&gt;" style="ellipse;whiteSpace=wrap;html=1;align=center;" vertex="1" parent="1">
          <mxGeometry x="76" y="-177" width="100" height="40" as="geometry" />
        </mxCell>
        <mxCell id="-gFtQ6SPpKlM3vbzV3f1-325" value="&lt;font style=&quot;font-size: 16px;&quot;&gt;Adress&lt;/font&gt;" style="ellipse;whiteSpace=wrap;html=1;align=center;" vertex="1" parent="1">
          <mxGeometry x="82" y="-276" width="100" height="40" as="geometry" />
        </mxCell>
        <mxCell id="-gFtQ6SPpKlM3vbzV3f1-328" value="&lt;font style=&quot;font-size: 16px;&quot;&gt;Join Date&lt;/font&gt;" style="ellipse;whiteSpace=wrap;html=1;align=center;" vertex="1" parent="1">
          <mxGeometry x="82" y="-228" width="100" height="40" as="geometry" />
        </mxCell>
        <mxCell id="-gFtQ6SPpKlM3vbzV3f1-368" value="&lt;font style=&quot;font-size: 16px;&quot;&gt;First&lt;/font&gt;" style="ellipse;whiteSpace=wrap;html=1;align=center;" vertex="1" parent="1">
          <mxGeometry x="1360" y="141.5" width="100" height="40" as="geometry" />
        </mxCell>
        <mxCell id="-gFtQ6SPpKlM3vbzV3f1-370" value="&lt;font style=&quot;font-size: 16px;&quot;&gt;Last&lt;/font&gt;" style="ellipse;whiteSpace=wrap;html=1;align=center;" vertex="1" parent="1">
          <mxGeometry x="1360" y="242.5" width="100" height="40" as="geometry" />
        </mxCell>
        <mxCell id="-gFtQ6SPpKlM3vbzV3f1-381" value="&lt;font style=&quot;font-size: 16px;&quot;&gt;Role&lt;/font&gt;" style="ellipse;whiteSpace=wrap;html=1;align=center;" vertex="1" parent="1">
          <mxGeometry x="76" y="660" width="100" height="40" as="geometry" />
        </mxCell>
        <mxCell id="-gFtQ6SPpKlM3vbzV3f1-387" style="edgeStyle=orthogonalEdgeStyle;rounded=0;orthogonalLoop=1;jettySize=auto;html=1;exitX=0.5;exitY=0;exitDx=0;exitDy=0;entryX=1;entryY=0.5;entryDx=0;entryDy=0;endArrow=none;endFill=0;" edge="1" parent="1" source="-gFtQ6SPpKlM3vbzV3f1-385" target="-gFtQ6SPpKlM3vbzV3f1-42">
          <mxGeometry relative="1" as="geometry" />
        </mxCell>
        <mxCell id="-gFtQ6SPpKlM3vbzV3f1-389" style="edgeStyle=orthogonalEdgeStyle;rounded=0;orthogonalLoop=1;jettySize=auto;html=1;exitX=0.5;exitY=1;exitDx=0;exitDy=0;entryX=1;entryY=0.5;entryDx=0;entryDy=0;endArrow=none;endFill=0;" edge="1" parent="1" source="-gFtQ6SPpKlM3vbzV3f1-385" target="-gFtQ6SPpKlM3vbzV3f1-44">
          <mxGeometry relative="1" as="geometry" />
        </mxCell>
        <mxCell id="-gFtQ6SPpKlM3vbzV3f1-385" value="&lt;font style=&quot;font-size: 16px;&quot;&gt;Name&lt;/font&gt;" style="ellipse;whiteSpace=wrap;html=1;align=center;" vertex="1" parent="1">
          <mxGeometry x="60" y="440" width="100" height="40" as="geometry" />
        </mxCell>
        <mxCell id="-gFtQ6SPpKlM3vbzV3f1-394" style="edgeStyle=orthogonalEdgeStyle;rounded=0;orthogonalLoop=1;jettySize=auto;html=1;exitX=0.5;exitY=0;exitDx=0;exitDy=0;entryX=0.5;entryY=1;entryDx=0;entryDy=0;endArrow=none;endFill=0;" edge="1" parent="1" source="-gFtQ6SPpKlM3vbzV3f1-392" target="-gFtQ6SPpKlM3vbzV3f1-28">
          <mxGeometry relative="1" as="geometry" />
        </mxCell>
        <mxCell id="-gFtQ6SPpKlM3vbzV3f1-395" style="edgeStyle=orthogonalEdgeStyle;rounded=0;orthogonalLoop=1;jettySize=auto;html=1;exitX=0.5;exitY=1;exitDx=0;exitDy=0;entryX=0.5;entryY=0;entryDx=0;entryDy=0;endArrow=none;endFill=0;" edge="1" parent="1" source="-gFtQ6SPpKlM3vbzV3f1-392" target="-gFtQ6SPpKlM3vbzV3f1-31">
          <mxGeometry relative="1" as="geometry" />
        </mxCell>
        <mxCell id="-gFtQ6SPpKlM3vbzV3f1-396" style="edgeStyle=orthogonalEdgeStyle;rounded=0;orthogonalLoop=1;jettySize=auto;html=1;exitX=0;exitY=1;exitDx=0;exitDy=0;entryX=0.5;entryY=0;entryDx=0;entryDy=0;endArrow=none;endFill=0;" edge="1" parent="1" source="-gFtQ6SPpKlM3vbzV3f1-392" target="-gFtQ6SPpKlM3vbzV3f1-18">
          <mxGeometry relative="1" as="geometry" />
        </mxCell>
        <mxCell id="-gFtQ6SPpKlM3vbzV3f1-397" style="edgeStyle=orthogonalEdgeStyle;rounded=0;orthogonalLoop=1;jettySize=auto;html=1;exitX=0;exitY=0;exitDx=0;exitDy=0;entryX=0.5;entryY=1;entryDx=0;entryDy=0;endArrow=none;endFill=0;" edge="1" parent="1" source="-gFtQ6SPpKlM3vbzV3f1-392" target="-gFtQ6SPpKlM3vbzV3f1-19">
          <mxGeometry relative="1" as="geometry" />
        </mxCell>
        <mxCell id="-gFtQ6SPpKlM3vbzV3f1-392" value="&lt;font style=&quot;font-size: 16px;&quot;&gt;Adress&lt;/font&gt;" style="ellipse;whiteSpace=wrap;html=1;align=center;" vertex="1" parent="1">
          <mxGeometry x="-32" y="202.5" width="100" height="40" as="geometry" />
        </mxCell>
        <mxCell id="-gFtQ6SPpKlM3vbzV3f1-408" style="edgeStyle=orthogonalEdgeStyle;rounded=0;orthogonalLoop=1;jettySize=auto;html=1;exitX=0.5;exitY=0;exitDx=0;exitDy=0;entryX=0;entryY=0.5;entryDx=0;entryDy=0;endArrow=none;endFill=0;" edge="1" parent="1" source="-gFtQ6SPpKlM3vbzV3f1-404" target="-gFtQ6SPpKlM3vbzV3f1-368">
          <mxGeometry relative="1" as="geometry" />
        </mxCell>
        <mxCell id="-gFtQ6SPpKlM3vbzV3f1-409" style="edgeStyle=orthogonalEdgeStyle;rounded=0;orthogonalLoop=1;jettySize=auto;html=1;exitX=0.5;exitY=1;exitDx=0;exitDy=0;entryX=0;entryY=0.5;entryDx=0;entryDy=0;endArrow=none;endFill=0;" edge="1" parent="1" source="-gFtQ6SPpKlM3vbzV3f1-404" target="-gFtQ6SPpKlM3vbzV3f1-370">
          <mxGeometry relative="1" as="geometry" />
        </mxCell>
        <mxCell id="-gFtQ6SPpKlM3vbzV3f1-404" value="&lt;font style=&quot;font-size: 16px;&quot;&gt;Name&lt;/font&gt;" style="ellipse;whiteSpace=wrap;html=1;align=center;" vertex="1" parent="1">
          <mxGeometry x="1252" y="192" width="100" height="40" as="geometry" />
        </mxCell>
        <mxCell id="-gFtQ6SPpKlM3vbzV3f1-450" value="&lt;font style=&quot;font-size: 16px;&quot;&gt;Balance&lt;/font&gt;" style="ellipse;whiteSpace=wrap;html=1;align=center;" vertex="1" parent="1">
          <mxGeometry x="372" y="264" width="100" height="40" as="geometry" />
        </mxCell>
        <mxCell id="-gFtQ6SPpKlM3vbzV3f1-452" value="&lt;font style=&quot;font-size: 16px;&quot;&gt;Price&lt;/font&gt;" style="ellipse;whiteSpace=wrap;html=1;align=center;" vertex="1" parent="1">
          <mxGeometry x="372" y="316" width="100" height="40" as="geometry" />
        </mxCell>
        <mxCell id="-gFtQ6SPpKlM3vbzV3f1-459" style="edgeStyle=orthogonalEdgeStyle;rounded=0;orthogonalLoop=1;jettySize=auto;html=1;exitX=0.5;exitY=1;exitDx=0;exitDy=0;entryX=0.5;entryY=0;entryDx=0;entryDy=0;endArrow=none;endFill=0;" edge="1" parent="1" source="-gFtQ6SPpKlM3vbzV3f1-454" target="-gFtQ6SPpKlM3vbzV3f1-458">
          <mxGeometry relative="1" as="geometry" />
        </mxCell>
        <mxCell id="-gFtQ6SPpKlM3vbzV3f1-454" value="&lt;font style=&quot;font-size: 16px;&quot;&gt;Shelf&lt;/font&gt;" style="ellipse;whiteSpace=wrap;html=1;align=center;" vertex="1" parent="1">
          <mxGeometry x="372" y="370" width="100" height="40" as="geometry" />
        </mxCell>
        <mxCell id="-gFtQ6SPpKlM3vbzV3f1-458" value="&lt;font style=&quot;font-size: 16px;&quot;&gt;ShelfName&lt;/font&gt;" style="ellipse;whiteSpace=wrap;html=1;align=center;" vertex="1" parent="1">
          <mxGeometry x="372" y="440" width="100" height="40" as="geometry" />
        </mxCell>
        <mxCell id="-gFtQ6SPpKlM3vbzV3f1-462" style="edgeStyle=orthogonalEdgeStyle;rounded=0;orthogonalLoop=1;jettySize=auto;html=1;exitX=1;exitY=0.5;exitDx=0;exitDy=0;entryX=0;entryY=0;entryDx=0;entryDy=0;endArrow=none;endFill=0;" edge="1" parent="1" source="-gFtQ6SPpKlM3vbzV3f1-460" target="-gFtQ6SPpKlM3vbzV3f1-73">
          <mxGeometry relative="1" as="geometry" />
        </mxCell>
        <mxCell id="-gFtQ6SPpKlM3vbzV3f1-468" value="&lt;font style=&quot;font-size: 20px;&quot;&gt;N&lt;/font&gt;" style="edgeLabel;html=1;align=center;verticalAlign=middle;resizable=0;points=[];" vertex="1" connectable="0" parent="-gFtQ6SPpKlM3vbzV3f1-462">
          <mxGeometry x="-0.922" y="1" relative="1" as="geometry">
            <mxPoint as="offset" />
          </mxGeometry>
        </mxCell>
        <mxCell id="-gFtQ6SPpKlM3vbzV3f1-464" style="edgeStyle=orthogonalEdgeStyle;rounded=0;orthogonalLoop=1;jettySize=auto;html=1;exitX=0;exitY=0;exitDx=0;exitDy=0;entryX=1;entryY=0.5;entryDx=0;entryDy=0;endArrow=none;endFill=0;" edge="1" parent="1" source="-gFtQ6SPpKlM3vbzV3f1-460" target="-gFtQ6SPpKlM3vbzV3f1-463">
          <mxGeometry relative="1" as="geometry" />
        </mxCell>
        <mxCell id="-gFtQ6SPpKlM3vbzV3f1-466" style="edgeStyle=orthogonalEdgeStyle;rounded=0;orthogonalLoop=1;jettySize=auto;html=1;exitX=1;exitY=0;exitDx=0;exitDy=0;entryX=0;entryY=0.5;entryDx=0;entryDy=0;endArrow=none;endFill=0;" edge="1" parent="1" source="-gFtQ6SPpKlM3vbzV3f1-460" target="-gFtQ6SPpKlM3vbzV3f1-465">
          <mxGeometry relative="1" as="geometry" />
        </mxCell>
        <mxCell id="-gFtQ6SPpKlM3vbzV3f1-460" value="&lt;font style=&quot;font-size: 16px;&quot;&gt;Reserve&lt;/font&gt;" style="shape=rhombus;perimeter=rhombusPerimeter;whiteSpace=wrap;html=1;align=center;" vertex="1" parent="1">
          <mxGeometry x="444" y="-152" width="120" height="60" as="geometry" />
        </mxCell>
        <mxCell id="-gFtQ6SPpKlM3vbzV3f1-463" value="&lt;font style=&quot;font-size: 16px;&quot;&gt;Date&lt;/font&gt;" style="ellipse;whiteSpace=wrap;html=1;align=center;" vertex="1" parent="1">
          <mxGeometry x="348" y="-228" width="100" height="40" as="geometry" />
        </mxCell>
        <mxCell id="-gFtQ6SPpKlM3vbzV3f1-465" value="&lt;font style=&quot;font-size: 16px;&quot;&gt;ExpireDate&lt;/font&gt;" style="ellipse;whiteSpace=wrap;html=1;align=center;" vertex="1" parent="1">
          <mxGeometry x="564" y="-228" width="100" height="40" as="geometry" />
        </mxCell>
        <mxCell id="-gFtQ6SPpKlM3vbzV3f1-477" value="&lt;font style=&quot;font-size: 15px;&quot;&gt;Date&lt;/font&gt;" style="ellipse;whiteSpace=wrap;html=1;align=center;" vertex="1" parent="1">
          <mxGeometry x="504" y="128" width="100" height="40" as="geometry" />
        </mxCell>
        <mxCell id="-gFtQ6SPpKlM3vbzV3f1-479" value="&lt;font style=&quot;font-size: 16px;&quot;&gt;ExpireDate&lt;/font&gt;" style="ellipse;whiteSpace=wrap;html=1;align=center;" vertex="1" parent="1">
          <mxGeometry x="368" y="128" width="100" height="40" as="geometry" />
        </mxCell>
        <mxCell id="-gFtQ6SPpKlM3vbzV3f1-490" style="edgeStyle=orthogonalEdgeStyle;rounded=0;orthogonalLoop=1;jettySize=auto;html=1;exitX=1;exitY=0.5;exitDx=0;exitDy=0;entryX=0;entryY=0.25;entryDx=0;entryDy=0;endArrow=none;endFill=0;" edge="1" parent="1" source="-gFtQ6SPpKlM3vbzV3f1-485" target="-gFtQ6SPpKlM3vbzV3f1-73">
          <mxGeometry relative="1" as="geometry" />
        </mxCell>
        <mxCell id="-gFtQ6SPpKlM3vbzV3f1-500" value="&lt;font style=&quot;font-size: 20px;&quot;&gt;N&lt;/font&gt;" style="edgeLabel;html=1;align=center;verticalAlign=middle;resizable=0;points=[];" vertex="1" connectable="0" parent="-gFtQ6SPpKlM3vbzV3f1-490">
          <mxGeometry x="-0.9091" y="-1" relative="1" as="geometry">
            <mxPoint as="offset" />
          </mxGeometry>
        </mxCell>
        <mxCell id="-gFtQ6SPpKlM3vbzV3f1-496" style="edgeStyle=orthogonalEdgeStyle;rounded=0;orthogonalLoop=1;jettySize=auto;html=1;exitX=0.5;exitY=1;exitDx=0;exitDy=0;entryX=1;entryY=0.5;entryDx=0;entryDy=0;endArrow=none;endFill=0;" edge="1" parent="1" source="-gFtQ6SPpKlM3vbzV3f1-485" target="-gFtQ6SPpKlM3vbzV3f1-491">
          <mxGeometry relative="1" as="geometry" />
        </mxCell>
        <mxCell id="-gFtQ6SPpKlM3vbzV3f1-497" style="edgeStyle=orthogonalEdgeStyle;rounded=0;orthogonalLoop=1;jettySize=auto;html=1;exitX=1;exitY=1;exitDx=0;exitDy=0;entryX=1;entryY=0.5;entryDx=0;entryDy=0;" edge="1" parent="1" source="-gFtQ6SPpKlM3vbzV3f1-485" target="-gFtQ6SPpKlM3vbzV3f1-492">
          <mxGeometry relative="1" as="geometry" />
        </mxCell>
        <mxCell id="-gFtQ6SPpKlM3vbzV3f1-485" value="Rent" style="shape=rhombus;perimeter=rhombusPerimeter;whiteSpace=wrap;html=1;align=center;" vertex="1" parent="1">
          <mxGeometry x="444" y="-84" width="120" height="60" as="geometry" />
        </mxCell>
        <mxCell id="-gFtQ6SPpKlM3vbzV3f1-486" value="&lt;font style=&quot;font-size: 16px;&quot;&gt;Role&lt;/font&gt;" style="ellipse;whiteSpace=wrap;html=1;align=center;" vertex="1" parent="1">
          <mxGeometry x="988" y="101.5" width="100" height="40" as="geometry" />
        </mxCell>
        <mxCell id="-gFtQ6SPpKlM3vbzV3f1-491" value="&lt;font style=&quot;font-size: 16px;&quot;&gt;Date&lt;/font&gt;" style="ellipse;whiteSpace=wrap;html=1;align=center;" vertex="1" parent="1">
          <mxGeometry x="364" y="-24" width="100" height="40" as="geometry" />
        </mxCell>
        <mxCell id="-gFtQ6SPpKlM3vbzV3f1-492" value="&lt;font style=&quot;font-size: 16px;&quot;&gt;ReturnDate&lt;/font&gt;" style="ellipse;whiteSpace=wrap;html=1;align=center;" vertex="1" parent="1">
          <mxGeometry x="364" y="24" width="100" height="40" as="geometry" />
        </mxCell>
        <mxCell id="-gFtQ6SPpKlM3vbzV3f1-503" value="&lt;font style=&quot;font-size: 16px;&quot;&gt;GenreName&lt;/font&gt;" style="ellipse;whiteSpace=wrap;html=1;align=center;" vertex="1" parent="1">
          <mxGeometry x="1008" y="540" width="100" height="40" as="geometry" />
        </mxCell>
      </root>
    </mxGraphModel>
  </diagram>
</mxfile>
